<svg width="600" height="593" viewBox="0 0 600 593" fill="none" xmlns="http://www.w3.org/2000/svg">
<path d="M336.155 46.9855C337.311 46.9756 338.467 46.9657 339.658 46.9555C341.547 46.9623 341.547 46.9623 343.475 46.9692C344.822 46.9635 346.17 46.9565 347.518 46.9484C351.176 46.9304 354.833 46.9316 358.491 46.9373C361.559 46.9404 364.627 46.9343 367.695 46.9283C374.952 46.9142 382.209 46.9158 389.466 46.9272C396.904 46.9386 404.342 46.9247 411.781 46.8978C418.197 46.8754 424.614 46.869 431.03 46.8749C434.848 46.8782 438.666 46.876 442.484 46.8586C474.586 46.7262 504.812 50.1253 528.791 73.756C542.888 88.8216 549.069 107.91 548.557 128.479C547.084 151.692 539.696 169.891 522.373 185.373C521.713 185.703 521.053 186.033 520.373 186.373C520.98 190.864 522.786 194.452 524.916 198.385C525.277 199.063 525.637 199.74 526.009 200.439C526.784 201.893 527.563 203.347 528.344 204.799C529.57 207.078 530.787 209.361 532.002 211.646C535.831 218.833 539.702 225.995 543.646 233.119C544.296 234.3 544.946 235.481 545.595 236.662C546.791 238.831 547.999 240.994 549.219 243.149C552.267 248.679 554.266 253.011 554.373 259.373C552.73 264.12 550.564 266.659 546.373 269.373C543.63 269.755 541.293 269.912 538.557 269.875C537.786 269.88 537.014 269.886 536.219 269.891C533.678 269.904 531.137 269.887 528.596 269.869C526.824 269.869 525.052 269.871 523.279 269.874C519.568 269.875 515.857 269.863 512.146 269.84C507.397 269.811 502.648 269.814 497.899 269.827C494.24 269.834 490.581 269.826 486.922 269.814C485.172 269.809 483.421 269.809 481.67 269.813C479.219 269.816 476.769 269.799 474.319 269.777C473.241 269.784 473.241 269.784 472.141 269.791C466.262 269.705 462.424 267.971 457.842 264.401C454.245 259.99 452.171 255.116 449.873 249.936C449.112 248.252 449.112 248.252 448.335 246.533C446.665 242.82 445.016 239.098 443.373 235.373C443.075 234.7 442.777 234.026 442.47 233.332C440.342 228.518 438.228 223.698 436.123 218.873C435.833 218.21 435.543 217.546 435.244 216.863C434.423 214.983 433.608 213.1 432.795 211.217C432.327 210.136 431.858 209.055 431.376 207.942C430.373 205.373 430.373 205.373 430.373 203.373C425.423 203.373 420.473 203.373 415.373 203.373C415.389 205.008 415.404 206.643 415.421 208.327C415.475 214.399 415.509 220.47 415.538 226.542C415.553 229.169 415.573 231.795 415.599 234.422C415.636 238.2 415.653 241.978 415.666 245.756C415.682 246.928 415.697 248.1 415.713 249.308C415.715 259.83 415.715 259.83 412.373 264.373C407.841 268.862 405.385 270 398.811 270.004C398.078 270.011 397.346 270.019 396.591 270.026C394.184 270.043 391.78 270.024 389.373 270.002C387.692 270.003 386.011 270.005 384.33 270.009C380.813 270.012 377.296 269.998 373.779 269.97C369.28 269.936 364.782 269.942 360.283 269.961C356.813 269.971 353.344 269.962 349.875 269.947C348.216 269.942 346.557 269.943 344.899 269.949C342.577 269.954 340.257 269.934 337.936 269.907C336.617 269.9 335.298 269.894 333.939 269.888C329.689 269.274 327.616 268.171 324.373 265.373C321.395 260.622 320.942 256.506 320.985 251.03C320.98 250.205 320.975 249.38 320.969 248.53C320.955 245.773 320.962 243.017 320.969 240.26C320.963 238.281 320.956 236.301 320.948 234.321C320.93 228.949 320.931 223.578 320.937 218.206C320.94 213.72 320.934 209.234 320.928 204.749C320.914 194.166 320.916 183.584 320.927 173.001C320.939 162.086 320.924 151.171 320.898 140.255C320.875 130.881 320.869 121.507 320.875 112.132C320.878 106.535 320.876 100.937 320.858 95.3395C320.843 90.0757 320.847 84.8122 320.866 79.5483C320.869 77.6178 320.866 75.6872 320.856 73.7567C320.843 71.1185 320.854 68.4815 320.872 65.8433C320.862 65.0818 320.853 64.3203 320.843 63.5358C320.918 58.0699 322.153 54.8309 325.373 50.3732C328.948 47.5098 331.632 46.9965 336.155 46.9855ZM415.373 115.373C415.373 121.643 415.373 127.913 415.373 134.373C420.143 134.465 424.91 134.545 429.68 134.593C431.302 134.613 432.923 134.64 434.545 134.675C436.878 134.724 439.211 134.746 441.545 134.764C442.268 134.784 442.991 134.805 443.736 134.826C447.215 134.828 449.035 134.633 451.831 132.485C454.412 128.95 454.009 125.569 453.373 121.373C451.661 117.609 451.661 117.609 448.373 115.373C445.892 115.287 443.44 115.258 440.959 115.276C439.865 115.278 439.865 115.278 438.748 115.28C436.415 115.285 434.081 115.298 431.748 115.311C430.167 115.316 428.587 115.32 427.006 115.324C423.128 115.335 419.251 115.354 415.373 115.373Z" fill="#FC6524"/>
<path d="M172.31 43.9982C173.731 43.9986 173.731 43.9986 175.181 43.9989C189.919 44.0317 204.018 44.7434 218.373 48.3732C219.119 48.5552 219.865 48.7371 220.633 48.9245C244.511 54.9491 265.599 68.6562 278.404 89.9318C285.813 102.883 290.442 116.957 290.534 131.973C290.544 133.242 290.553 134.511 290.563 135.819C290.568 137.19 290.572 138.561 290.576 139.932C290.58 140.984 290.58 140.984 290.585 142.058C290.6 145.779 290.609 149.5 290.613 153.221C290.619 157.016 290.643 160.811 290.671 164.606C290.69 167.565 290.695 170.524 290.696 173.484C290.699 174.88 290.707 176.276 290.721 177.673C290.941 202.483 283.713 225.132 266.373 243.373C265.713 243.373 265.053 243.373 264.373 243.373C268.482 249.642 272.765 255.758 277.185 261.811C278.339 263.392 279.492 264.974 280.642 266.557C281.144 267.243 281.645 267.93 282.161 268.637C284.978 272.674 285.219 276.572 284.373 281.373C282.079 285.301 279.713 287.926 275.373 289.373C273.29 289.483 271.203 289.532 269.117 289.55C267.178 289.569 267.178 289.569 265.201 289.589C263.787 289.597 262.373 289.605 260.959 289.612C260.245 289.616 259.531 289.62 258.795 289.624C255.011 289.645 251.227 289.659 247.443 289.668C243.552 289.679 239.663 289.714 235.773 289.754C232.766 289.78 229.76 289.788 226.754 289.792C225.321 289.797 223.888 289.808 222.456 289.827C212.841 289.944 204.503 289.621 197.307 282.647C196.483 281.69 195.659 280.734 194.81 279.748C193.964 278.787 193.117 277.825 192.244 276.834C190.373 274.373 190.373 274.373 190.373 272.373C188.758 272.397 188.758 272.397 187.11 272.421C146.444 272.961 146.444 272.961 131.373 269.373C130.538 269.185 129.703 268.997 128.842 268.803C109.689 264.372 93.0101 256.736 79.3729 242.373C78.1625 241.172 78.1625 241.172 76.9276 239.947C59.2506 221.641 54.2721 197.363 54.1698 172.725C54.1641 171.632 54.1584 170.54 54.1525 169.414C54.1431 167.109 54.1366 164.805 54.1327 162.501C54.123 159.043 54.092 155.585 54.0604 152.127C53.9209 123.217 57.5605 96.8029 78.5526 75.1936C104.142 49.6045 137.261 43.926 172.31 43.9982ZM153.498 120.623C147.94 127.815 147.929 134.232 147.974 143.061C147.972 144.277 147.969 145.494 147.966 146.747C147.964 149.312 147.969 151.877 147.982 154.443C147.998 158.36 147.982 162.276 147.963 166.194C147.965 168.691 147.969 171.188 147.974 173.686C147.968 174.853 147.962 176.019 147.956 177.222C148.016 184.228 148.361 189.697 152.951 195.299C160.902 201.893 169.306 202.251 179.373 201.373C184.866 200.184 189.718 198.629 193.498 194.311C196.108 190.221 196.505 187.392 196.55 182.636C196.563 181.458 196.576 180.279 196.589 179.065C196.596 177.79 196.604 176.515 196.611 175.201C196.619 173.89 196.627 172.58 196.636 171.229C196.651 168.451 196.661 165.674 196.668 162.897C196.679 159.351 196.714 155.807 196.753 152.262C196.786 148.867 196.79 145.472 196.799 142.076C196.816 140.809 196.834 139.543 196.852 138.237C196.835 131.403 196.604 126.862 192.373 121.373C181.944 112.799 164.221 112.231 153.498 120.623Z" fill="#FC6524"/>
<path d="M82.66 321.742C83.7148 321.731 83.7148 321.731 84.791 321.721C87.1002 321.704 89.4075 321.723 91.7166 321.744C93.3303 321.744 94.9441 321.741 96.5578 321.737C99.9338 321.734 103.309 321.749 106.685 321.776C111.003 321.81 115.319 321.804 119.637 321.786C122.967 321.775 126.298 321.784 129.628 321.799C131.219 321.804 132.811 321.804 134.403 321.798C136.631 321.792 138.858 321.813 141.086 321.84C142.351 321.846 143.617 321.852 144.92 321.859C149.01 322.468 151.169 323.804 154.373 326.373C157.787 331.313 157.841 335.914 157.885 341.709C157.903 342.589 157.92 343.468 157.939 344.374C157.993 347.165 158.027 349.957 158.06 352.748C158.094 354.648 158.128 356.548 158.164 358.448C158.249 363.089 158.316 367.731 158.373 372.373C160.106 370.34 161.838 368.304 163.568 366.268C164.052 365.701 164.536 365.134 165.034 364.549C168.218 360.798 171.268 356.976 174.248 353.061C174.696 352.473 175.144 351.886 175.606 351.28C175.963 350.81 176.321 350.339 176.689 349.854C179.789 345.807 182.98 341.836 186.185 337.873C186.725 337.203 187.264 336.532 187.82 335.841C192.417 330.181 196.476 325.222 203.373 322.373C206.185 322.089 208.771 321.952 211.578 321.969C212.779 321.959 212.779 321.959 214.005 321.948C216.638 321.93 219.271 321.934 221.904 321.94C223.742 321.935 225.58 321.93 227.418 321.924C231.264 321.915 235.111 321.917 238.957 321.927C243.88 321.939 248.803 321.919 253.725 321.889C257.519 321.871 261.312 321.871 265.106 321.877C266.921 321.877 268.736 321.871 270.551 321.859C273.09 321.844 275.628 321.854 278.168 321.872C279.285 321.857 279.285 321.857 280.426 321.842C285.538 321.914 288.455 323.122 292.373 326.373C294.712 330.101 295.743 333.146 295.248 337.498C293.451 344.015 288.299 348.735 283.888 353.641C281.445 356.434 279.197 359.37 276.935 362.311C272.735 367.729 268.348 372.947 263.854 378.123C260.404 382.117 257.104 386.201 253.873 390.373C250.103 395.239 246.212 399.968 242.185 404.623C233.082 414.983 233.082 414.983 225.373 426.373C231.503 434.205 237.667 442.008 243.892 449.766C247.226 453.926 250.527 458.111 253.81 462.311C257.792 467.402 261.846 472.43 265.935 477.436C270.659 483.219 275.246 489.082 279.771 495.022C282.765 498.914 285.885 502.701 288.998 506.498C304.752 525.742 304.752 525.742 304.658 534.049C304.219 537.624 302.715 539.706 300.373 542.373C296.582 545.065 292.321 544.669 287.86 544.664C287.003 544.671 286.145 544.677 285.262 544.684C282.428 544.703 279.594 544.707 276.76 544.709C274.787 544.716 272.814 544.722 270.841 544.729C266.704 544.741 262.567 544.745 258.431 544.744C253.138 544.744 247.846 544.771 242.553 544.805C238.477 544.828 234.401 544.832 230.325 544.831C228.375 544.833 226.424 544.842 224.473 544.857C221.74 544.877 219.007 544.871 216.274 544.859C215.473 544.87 214.672 544.882 213.847 544.893C207.368 544.821 203.184 542.938 198.326 538.506C197.764 537.844 197.202 537.181 196.623 536.498C195.954 535.712 195.285 534.926 194.596 534.115C191.569 530.382 188.6 526.605 185.651 522.809C182.486 518.745 179.225 514.784 175.873 510.873C170.904 505.074 166.176 499.105 161.49 493.076C160.004 491.16 160.004 491.16 158.373 489.373C158.369 489.922 158.366 490.47 158.362 491.035C158.32 496.762 158.25 502.488 158.165 508.215C158.137 510.35 158.116 512.484 158.102 514.619C158.08 517.695 158.034 520.77 157.982 523.846C157.981 524.794 157.98 525.742 157.979 526.719C157.846 532.767 157.039 536.49 153.373 541.373C149.329 544.436 146.288 544.752 141.275 544.761C140.233 544.769 140.233 544.769 139.169 544.777C136.883 544.791 134.597 544.782 132.31 544.772C130.715 544.774 129.12 544.777 127.525 544.78C124.186 544.785 120.847 544.778 117.509 544.764C113.235 544.747 108.961 544.757 104.687 544.775C101.395 544.786 98.1023 544.782 94.8097 544.775C93.234 544.773 91.6584 544.775 90.0828 544.782C87.8784 544.79 85.6749 544.778 83.4705 544.761C82.2176 544.759 80.9647 544.757 79.6739 544.754C74.8334 544.196 72.3374 542.445 69.1229 538.873C66.0711 534.514 66.2266 530.581 66.2324 525.46C66.2295 524.645 66.2265 523.83 66.2234 522.99C66.2147 520.25 66.2132 517.509 66.2117 514.769C66.2071 512.807 66.2021 510.846 66.1967 508.885C66.1836 503.55 66.1771 498.216 66.1727 492.881C66.1697 489.549 66.1656 486.218 66.1612 482.886C66.1475 472.466 66.1378 462.045 66.134 451.625C66.1295 439.589 66.1119 427.554 66.083 415.518C66.0614 406.22 66.0513 396.921 66.0499 387.622C66.0489 382.067 66.043 376.511 66.0251 370.955C66.0087 365.729 66.0065 360.503 66.0152 355.277C66.016 353.359 66.0117 351.441 66.0018 349.523C65.9891 346.904 65.9949 344.286 66.0054 341.667C65.9973 340.909 65.9893 340.15 65.981 339.368C66.0405 332.98 67.7023 329.107 72.1049 324.538C75.9738 321.975 78.0544 321.746 82.66 321.742Z" fill="#FC6524"/>
<path d="M335.565 321.986C336.385 321.98 337.206 321.975 338.052 321.969C340.8 321.955 343.548 321.962 346.297 321.969C348.268 321.964 350.239 321.957 352.21 321.948C357.564 321.931 362.917 321.932 368.27 321.937C372.738 321.94 377.207 321.934 381.675 321.928C392.216 321.914 402.756 321.916 413.297 321.927C424.173 321.939 435.049 321.925 445.926 321.898C455.262 321.876 464.599 321.869 473.936 321.875C479.513 321.878 485.09 321.876 490.667 321.859C495.911 321.843 501.155 321.847 506.399 321.866C508.324 321.87 510.248 321.867 512.172 321.856C514.8 321.843 517.427 321.854 520.054 321.872C520.816 321.863 521.577 321.853 522.361 321.843C527.501 321.914 530.413 323.133 534.373 326.373C538.427 331.832 537.823 338.045 537.807 344.561C537.812 345.737 537.817 346.913 537.822 348.124C537.829 350.605 537.827 353.086 537.819 355.568C537.81 359.36 537.839 363.151 537.871 366.944C537.873 369.358 537.872 371.772 537.869 374.186C537.88 375.317 537.892 376.449 537.903 377.614C537.848 383.842 537.583 387.654 533.373 392.373C529.544 395.738 526.373 396.499 521.351 396.487C520.316 396.487 519.281 396.487 518.214 396.486C517.128 396.481 516.042 396.476 514.924 396.471C513.424 396.469 513.424 396.469 511.895 396.468C508.158 396.463 504.422 396.449 500.685 396.436C492.332 396.415 483.979 396.395 475.373 396.373C475.373 420.793 475.373 445.213 475.373 470.373C491.887 470.255 491.887 470.255 508.401 470.103C510.477 470.094 512.554 470.087 514.631 470.08C516.236 470.057 516.236 470.057 517.875 470.034C523.45 470.032 527.606 470.126 532.373 473.373C536.116 477.521 537.492 479.922 537.55 485.446C537.569 487.034 537.569 487.034 537.589 488.654C537.596 489.802 537.604 490.951 537.611 492.135C537.619 493.314 537.627 494.493 537.636 495.708C537.649 498.209 537.66 500.71 537.668 503.211C537.685 507.028 537.729 510.844 537.773 514.66C537.783 517.089 537.792 519.518 537.799 521.948C537.816 523.086 537.834 524.225 537.852 525.398C537.834 531.933 537.466 536.162 533.373 541.373C529.163 544.648 525.326 544.801 520.181 544.761C519.36 544.766 518.54 544.772 517.694 544.777C514.946 544.792 512.198 544.784 509.449 544.777C507.478 544.783 505.507 544.79 503.536 544.798C498.182 544.816 492.829 544.815 487.476 544.809C483.007 544.806 478.539 544.812 474.071 544.818C463.53 544.832 452.99 544.831 442.449 544.819C431.573 544.808 420.697 544.822 409.82 544.849C400.483 544.871 391.147 544.878 381.81 544.872C376.233 544.868 370.656 544.871 365.079 544.888C359.835 544.903 354.591 544.899 349.347 544.881C347.422 544.877 345.498 544.88 343.573 544.891C340.946 544.904 338.319 544.892 335.692 544.875C334.93 544.884 334.169 544.894 333.385 544.904C328.245 544.832 325.332 543.614 321.373 540.373C317.319 534.914 317.922 528.702 317.939 522.186C317.934 521.01 317.929 519.834 317.923 518.623C317.917 516.141 317.918 513.66 317.927 511.179C317.935 507.386 317.907 503.595 317.875 499.803C317.873 497.389 317.874 494.975 317.877 492.561C317.866 491.429 317.854 490.298 317.843 489.132C317.898 482.904 318.163 479.093 322.373 474.373C326.234 470.98 329.426 470.248 334.487 470.26C336.07 470.26 336.07 470.26 337.685 470.26C338.792 470.265 339.9 470.27 341.041 470.276C342.06 470.277 343.079 470.278 344.129 470.279C347.94 470.284 351.75 470.298 355.56 470.311C364.079 470.331 372.597 470.352 381.373 470.373C381.373 445.953 381.373 421.533 381.373 396.373C364.53 396.492 364.53 396.492 347.687 396.644C345.569 396.652 343.452 396.66 341.334 396.666C340.242 396.682 339.15 396.697 338.025 396.713C332.406 396.715 328.171 396.66 323.373 393.373C319.63 389.226 318.254 386.825 318.196 381.3C318.183 380.242 318.17 379.184 318.157 378.093C318.15 376.944 318.142 375.795 318.135 374.612C318.127 373.432 318.118 372.253 318.11 371.038C318.096 368.538 318.086 366.037 318.078 363.536C318.061 359.719 318.017 355.903 317.973 352.086C317.962 349.657 317.954 347.228 317.947 344.799C317.93 343.66 317.912 342.522 317.894 341.348C317.912 334.814 318.28 330.585 322.373 325.373C326.582 322.099 330.42 321.945 335.565 321.986Z" fill="#FC6524"/>
<path d="M579.373 452.373C585.973 452.373 592.573 452.373 599.373 452.373C599.443 468.698 599.496 485.023 599.529 501.348C599.544 508.928 599.565 516.508 599.599 524.088C599.629 530.695 599.649 537.303 599.655 543.911C599.659 547.409 599.668 550.906 599.69 554.404C599.714 558.311 599.715 562.218 599.714 566.126C599.724 567.282 599.735 568.439 599.746 569.631C599.718 576.905 598.927 581.405 594.061 587.061C587.374 592.814 581.602 592.793 573.125 592.714C571.896 592.714 570.666 592.715 569.399 592.715C566.039 592.713 562.681 592.698 559.322 592.677C555.806 592.659 552.291 592.657 548.776 592.653C542.125 592.644 535.474 592.619 528.823 592.589C521.248 592.556 513.674 592.539 506.1 592.524C490.524 592.493 474.949 592.44 459.373 592.373C459.373 585.773 459.373 579.173 459.373 572.373C498.973 572.373 538.573 572.373 579.373 572.373C579.373 532.773 579.373 493.173 579.373 452.373Z" fill="#FC6524"/>
<path d="M0.373087 452.373C6.97309 452.373 13.5731 452.373 20.3731 452.373C20.3731 491.973 20.3731 531.573 20.3731 572.373C59.9731 572.373 99.5731 572.373 140.373 572.373C140.373 578.973 140.373 585.573 140.373 592.373C124.048 592.443 107.724 592.496 91.3989 592.529C83.8188 592.544 76.2388 592.565 68.6587 592.6C62.0511 592.63 55.4435 592.649 48.8358 592.656C45.3378 592.659 41.84 592.669 38.3422 592.69C34.4349 592.715 30.5279 592.715 26.6206 592.714C25.464 592.725 24.3074 592.735 23.1157 592.747C15.8411 592.719 11.3409 591.927 5.68559 587.061C-0.0680995 580.374 -0.0465371 574.602 0.0325104 566.126C0.0320723 564.896 0.0316343 563.666 0.0311829 562.399C0.0329106 559.04 0.0479203 555.681 0.0689048 552.322C0.087702 548.806 0.0894244 545.291 0.092981 541.776C0.102293 535.125 0.126894 528.474 0.157029 521.823C0.190601 514.249 0.207066 506.674 0.222116 499.1C0.253445 483.524 0.306794 467.949 0.373087 452.373Z" fill="#FC6524"/>
<path d="M459.373 0.37326C475.698 0.30378 492.022 0.250259 508.347 0.217824C515.927 0.202363 523.507 0.181287 531.087 0.146942C537.695 0.117017 544.303 0.0976801 550.91 0.090995C554.408 0.087088 557.906 0.0779214 561.404 0.0560703C565.311 0.0318609 569.218 0.0312925 573.125 0.0326843C574.282 0.0218985 575.439 0.0111127 576.63 0C583.905 0.0280789 588.405 0.819575 594.061 5.68576C599.814 12.3725 599.793 18.1441 599.714 26.6208C599.714 27.8506 599.715 29.0805 599.715 30.3476C599.713 33.7068 599.698 37.0655 599.677 40.4247C599.658 43.9401 599.657 47.4554 599.653 50.9708C599.644 57.6218 599.619 64.2727 599.589 70.9236C599.556 78.4979 599.539 86.0723 599.524 93.6467C599.493 109.222 599.439 124.798 599.373 140.373C592.773 140.373 586.173 140.373 579.373 140.373C579.373 100.773 579.373 61.1733 579.373 20.3733C539.773 20.3733 500.173 20.3733 459.373 20.3733C459.373 13.7733 459.373 7.17326 459.373 0.37326Z" fill="#FC6524"/>
<path d="M26.6208 0.0327546C27.8506 0.0323165 29.0805 0.0318784 30.3476 0.0314271C33.7068 0.0331548 37.0655 0.0481645 40.4247 0.0691489C43.9401 0.0879462 47.4554 0.0896686 50.9708 0.0932251C57.6218 0.102537 64.2727 0.127138 70.9236 0.157274C78.4979 0.190845 86.0723 0.207311 93.6467 0.22236C109.222 0.253689 124.798 0.307039 140.373 0.373331C140.373 6.97333 140.373 13.5733 140.373 20.3733C100.773 20.3733 61.1733 20.3733 20.3733 20.3733C20.3733 59.9733 20.3733 99.5733 20.3733 140.373C13.7733 140.373 7.17326 140.373 0.37326 140.373C0.30378 124.049 0.250258 107.724 0.217823 91.3991C0.202362 83.819 0.181287 76.239 0.146942 68.659C0.117017 62.0513 0.0976809 55.4437 0.0909958 48.836C0.0870887 45.3381 0.0779214 41.8403 0.0560703 38.3424C0.0318609 34.4352 0.0312925 30.5282 0.0326843 26.6209C0.0218985 25.4643 0.0111127 24.3076 0 23.116C0.0280789 15.8414 0.819575 11.3411 5.68576 5.68583C12.3725 -0.0678554 18.1441 -0.046293 26.6208 0.0327546Z" fill="#FC6524"/>
</svg>
