<svg width="226" height="226" viewBox="0 0 226 226" fill="none" xmlns="http://www.w3.org/2000/svg">
<g clip-path="url(#clip0_791_1341)">
<path d="M225.6 0H0V225.6H225.6V0Z" fill="white"/>
<mask id="mask0_791_1341" style="mask-type:luminance" maskUnits="userSpaceOnUse" x="0" y="0" width="226" height="226">
<path d="M9.024 126.336H0V135.36H9.024V126.336Z" fill="white"/>
<path d="M18.0479 81.2158H9.02393V90.2398H18.0479V81.2158Z" fill="white"/>
<path d="M18.0479 90.2402H9.02393V99.2642H18.0479V90.2402Z" fill="white"/>
<path d="M18.0479 99.2642H9.02393V108.288H18.0479V99.2642Z" fill="white"/>
<path d="M18.0479 108.288H9.02393V117.312H18.0479V108.288Z" fill="white"/>
<path d="M18.0479 117.312H9.02393V126.336H18.0479V117.312Z" fill="white"/>
<path d="M18.0479 144.384H9.02393V153.408H18.0479V144.384Z" fill="white"/>
<path d="M27.0719 72.1919H18.0479V81.2159H27.0719V72.1919Z" fill="white"/>
<path d="M27.0719 117.312H18.0479V126.336H27.0719V117.312Z" fill="white"/>
<path d="M27.0719 144.384H18.0479V153.408H27.0719V144.384Z" fill="white"/>
<path d="M36.0958 72.1919H27.0718V81.2159H36.0958V72.1919Z" fill="white"/>
<path d="M36.0958 81.2158H27.0718V90.2398H36.0958V81.2158Z" fill="white"/>
<path d="M36.0958 90.2402H27.0718V99.2642H36.0958V90.2402Z" fill="white"/>
<path d="M36.0958 108.288H27.0718V117.312H36.0958V108.288Z" fill="white"/>
<path d="M36.0958 117.312H27.0718V126.336H36.0958V117.312Z" fill="white"/>
<path d="M36.0958 126.336H27.0718V135.36H36.0958V126.336Z" fill="white"/>
<path d="M45.1202 90.2402H36.0962V99.2642H45.1202V90.2402Z" fill="white"/>
<path d="M45.1202 99.2642H36.0962V108.288H45.1202V99.2642Z" fill="white"/>
<path d="M45.1202 108.288H36.0962V117.312H45.1202V108.288Z" fill="white"/>
<path d="M45.1202 126.336H36.0962V135.36H45.1202V126.336Z" fill="white"/>
<path d="M54.1441 81.2158H45.1201V90.2398H54.1441V81.2158Z" fill="white"/>
<path d="M54.1441 99.2642H45.1201V108.288H54.1441V99.2642Z" fill="white"/>
<path d="M54.1441 117.312H45.1201V126.336H54.1441V117.312Z" fill="white"/>
<path d="M54.1441 126.336H45.1201V135.36H54.1441V126.336Z" fill="white"/>
<path d="M54.1441 135.36H45.1201V144.384H54.1441V135.36Z" fill="white"/>
<path d="M54.1441 144.384H45.1201V153.408H54.1441V144.384Z" fill="white"/>
<path d="M63.168 72.1919H54.144V81.2159H63.168V72.1919Z" fill="white"/>
<path d="M63.168 90.2402H54.144V99.2642H63.168V90.2402Z" fill="white"/>
<path d="M63.168 108.288H54.144V117.312H63.168V108.288Z" fill="white"/>
<path d="M63.168 126.336H54.144V135.36H63.168V126.336Z" fill="white"/>
<path d="M63.168 144.384H54.144V153.408H63.168V144.384Z" fill="white"/>
<path d="M72.192 90.2402H63.168V99.2642H72.192V90.2402Z" fill="white"/>
<path d="M72.192 99.2642H63.168V108.288H72.192V99.2642Z" fill="white"/>
<path d="M72.192 117.312H63.168V126.336H72.192V117.312Z" fill="white"/>
<path d="M72.192 144.384H63.168V153.408H72.192V144.384Z" fill="white"/>
<path d="M81.2159 27.0718H72.1919V36.0958H81.2159V27.0718Z" fill="white"/>
<path d="M81.2159 36.0962H72.1919V45.1202H81.2159V36.0962Z" fill="white"/>
<path d="M81.2159 54.144H72.1919V63.168H81.2159V54.144Z" fill="white"/>
<path d="M81.2159 63.168H72.1919V72.192H81.2159V63.168Z" fill="white"/>
<path d="M81.2159 90.2402H72.1919V99.2642H81.2159V90.2402Z" fill="white"/>
<path d="M81.2159 108.288H72.1919V117.312H81.2159V108.288Z" fill="white"/>
<path d="M81.2159 135.36H72.1919V144.384H81.2159V135.36Z" fill="white"/>
<path d="M81.2159 144.384H72.1919V153.408H81.2159V144.384Z" fill="white"/>
<path d="M81.2159 189.504H72.1919V198.528H81.2159V189.504Z" fill="white"/>
<path d="M81.2159 198.528H72.1919V207.552H81.2159V198.528Z" fill="white"/>
<path d="M90.2398 9.02393H81.2158V18.0479H90.2398V9.02393Z" fill="white"/>
<path d="M90.2398 18.0479H81.2158V27.0719H90.2398V18.0479Z" fill="white"/>
<path d="M90.2398 27.0718H81.2158V36.0958H90.2398V27.0718Z" fill="white"/>
<path d="M90.2398 36.0962H81.2158V45.1202H90.2398V36.0962Z" fill="white"/>
<path d="M90.2398 63.168H81.2158V72.192H90.2398V63.168Z" fill="white"/>
<path d="M90.2398 72.1919H81.2158V81.2159H90.2398V72.1919Z" fill="white"/>
<path d="M90.2398 99.2642H81.2158V108.288H90.2398V99.2642Z" fill="white"/>
<path d="M90.2398 108.288H81.2158V117.312H90.2398V108.288Z" fill="white"/>
<path d="M90.2398 135.36H81.2158V144.384H90.2398V135.36Z" fill="white"/>
<path d="M90.2398 153.408H81.2158V162.432H90.2398V153.408Z" fill="white"/>
<path d="M90.2398 171.456H81.2158V180.48H90.2398V171.456Z" fill="white"/>
<path d="M90.2398 180.48H81.2158V189.504H90.2398V180.48Z" fill="white"/>
<path d="M90.2398 189.504H81.2158V198.528H90.2398V189.504Z" fill="white"/>
<path d="M90.2398 198.528H81.2158V207.552H90.2398V198.528Z" fill="white"/>
<path d="M90.2398 207.552H81.2158V216.576H90.2398V207.552Z" fill="white"/>
<path d="M99.2642 18.0479H90.2402V27.0719H99.2642V18.0479Z" fill="white"/>
<path d="M99.2642 45.1201H90.2402V54.1441H99.2642V45.1201Z" fill="white"/>
<path d="M99.2642 54.144H90.2402V63.168H99.2642V54.144Z" fill="white"/>
<path d="M99.2642 99.2642H90.2402V108.288H99.2642V99.2642Z" fill="white"/>
<path d="M99.2642 108.288H90.2402V117.312H99.2642V108.288Z" fill="white"/>
<path d="M99.2642 117.312H90.2402V126.336H99.2642V117.312Z" fill="white"/>
<path d="M99.2642 126.336H90.2402V135.36H99.2642V126.336Z" fill="white"/>
<path d="M99.2642 144.384H90.2402V153.408H99.2642V144.384Z" fill="white"/>
<path d="M99.2642 153.408H90.2402V162.432H99.2642V153.408Z" fill="white"/>
<path d="M99.2642 198.528H90.2402V207.552H99.2642V198.528Z" fill="white"/>
<path d="M99.2642 216.576H90.2402V225.6H99.2642V216.576Z" fill="white"/>
<path d="M108.288 27.0718H99.2642V36.0958H108.288V27.0718Z" fill="white"/>
<path d="M108.288 45.1201H99.2642V54.1441H108.288V45.1201Z" fill="white"/>
<path d="M108.288 72.1919H99.2642V81.2159H108.288V72.1919Z" fill="white"/>
<path d="M108.288 81.2158H99.2642V90.2398H108.288V81.2158Z" fill="white"/>
<path d="M108.288 99.2642H99.2642V108.288H108.288V99.2642Z" fill="white"/>
<path d="M108.288 135.36H99.2642V144.384H108.288V135.36Z" fill="white"/>
<path d="M108.288 144.384H99.2642V153.408H108.288V144.384Z" fill="white"/>
<path d="M108.288 153.408H99.2642V162.432H108.288V153.408Z" fill="white"/>
<path d="M108.288 162.432H99.2642V171.456H108.288V162.432Z" fill="white"/>
<path d="M108.288 171.456H99.2642V180.48H108.288V171.456Z" fill="white"/>
<path d="M108.288 180.48H99.2642V189.504H108.288V180.48Z" fill="white"/>
<path d="M108.288 198.528H99.2642V207.552H108.288V198.528Z" fill="white"/>
<path d="M117.312 0H108.288V9.024H117.312V0Z" fill="white"/>
<path d="M117.312 9.02393H108.288V18.0479H117.312V9.02393Z" fill="white"/>
<path d="M117.312 18.0479H108.288V27.0719H117.312V18.0479Z" fill="white"/>
<path d="M117.312 27.0718H108.288V36.0958H117.312V27.0718Z" fill="white"/>
<path d="M117.312 36.0962H108.288V45.1202H117.312V36.0962Z" fill="white"/>
<path d="M117.312 54.144H108.288V63.168H117.312V54.144Z" fill="white"/>
<path d="M117.312 72.1919H108.288V81.2159H117.312V72.1919Z" fill="white"/>
<path d="M117.312 90.2402H108.288V99.2642H117.312V90.2402Z" fill="white"/>
<path d="M117.312 99.2642H108.288V108.288H117.312V99.2642Z" fill="white"/>
<path d="M117.312 144.384H108.288V153.408H117.312V144.384Z" fill="white"/>
<path d="M117.312 162.432H108.288V171.456H117.312V162.432Z" fill="white"/>
<path d="M117.312 171.456H108.288V180.48H117.312V171.456Z" fill="white"/>
<path d="M117.312 189.504H108.288V198.528H117.312V189.504Z" fill="white"/>
<path d="M117.312 216.576H108.288V225.6H117.312V216.576Z" fill="white"/>
<path d="M126.336 0H117.312V9.024H126.336V0Z" fill="white"/>
<path d="M126.336 36.0962H117.312V45.1202H126.336V36.0962Z" fill="white"/>
<path d="M126.336 45.1201H117.312V54.1441H126.336V45.1201Z" fill="white"/>
<path d="M126.336 63.168H117.312V72.192H126.336V63.168Z" fill="white"/>
<path d="M126.336 72.1919H117.312V81.2159H126.336V72.1919Z" fill="white"/>
<path d="M126.336 81.2158H117.312V90.2398H126.336V81.2158Z" fill="white"/>
<path d="M126.336 99.2642H117.312V108.288H126.336V99.2642Z" fill="white"/>
<path d="M126.336 126.336H117.312V135.36H126.336V126.336Z" fill="white"/>
<path d="M126.336 144.384H117.312V153.408H126.336V144.384Z" fill="white"/>
<path d="M126.336 153.408H117.312V162.432H126.336V153.408Z" fill="white"/>
<path d="M126.336 171.456H117.312V180.48H126.336V171.456Z" fill="white"/>
<path d="M126.336 180.48H117.312V189.504H126.336V180.48Z" fill="white"/>
<path d="M126.336 189.504H117.312V198.528H126.336V189.504Z" fill="white"/>
<path d="M126.336 198.528H117.312V207.552H126.336V198.528Z" fill="white"/>
<path d="M126.336 207.552H117.312V216.576H126.336V207.552Z" fill="white"/>
<path d="M135.36 0H126.336V9.024H135.36V0Z" fill="white"/>
<path d="M135.36 9.02393H126.336V18.0479H135.36V9.02393Z" fill="white"/>
<path d="M135.36 18.0479H126.336V27.0719H135.36V18.0479Z" fill="white"/>
<path d="M135.36 36.0962H126.336V45.1202H135.36V36.0962Z" fill="white"/>
<path d="M135.36 54.144H126.336V63.168H135.36V54.144Z" fill="white"/>
<path d="M135.36 72.1919H126.336V81.2159H135.36V72.1919Z" fill="white"/>
<path d="M135.36 81.2158H126.336V90.2398H135.36V81.2158Z" fill="white"/>
<path d="M135.36 99.2642H126.336V108.288H135.36V99.2642Z" fill="white"/>
<path d="M135.36 108.288H126.336V117.312H135.36V108.288Z" fill="white"/>
<path d="M135.36 126.336H126.336V135.36H135.36V126.336Z" fill="white"/>
<path d="M135.36 144.384H126.336V153.408H135.36V144.384Z" fill="white"/>
<path d="M135.36 189.504H126.336V198.528H135.36V189.504Z" fill="white"/>
<path d="M135.36 207.552H126.336V216.576H135.36V207.552Z" fill="white"/>
<path d="M135.36 216.576H126.336V225.6H135.36V216.576Z" fill="white"/>
<path d="M144.384 0H135.36V9.024H144.384V0Z" fill="white"/>
<path d="M144.384 45.1201H135.36V54.1441H144.384V45.1201Z" fill="white"/>
<path d="M144.384 72.1919H135.36V81.2159H144.384V72.1919Z" fill="white"/>
<path d="M144.384 81.2158H135.36V90.2398H144.384V81.2158Z" fill="white"/>
<path d="M144.384 99.2642H135.36V108.288H144.384V99.2642Z" fill="white"/>
<path d="M144.384 126.336H135.36V135.36H144.384V126.336Z" fill="white"/>
<path d="M144.384 135.36H135.36V144.384H144.384V135.36Z" fill="white"/>
<path d="M144.384 153.408H135.36V162.432H144.384V153.408Z" fill="white"/>
<path d="M144.384 162.432H135.36V171.456H144.384V162.432Z" fill="white"/>
<path d="M144.384 189.504H135.36V198.528H144.384V189.504Z" fill="white"/>
<path d="M144.384 198.528H135.36V207.552H144.384V198.528Z" fill="white"/>
<path d="M144.384 207.552H135.36V216.576H144.384V207.552Z" fill="white"/>
<path d="M153.408 0H144.384V9.024H153.408V0Z" fill="white"/>
<path d="M153.408 27.0718H144.384V36.0958H153.408V27.0718Z" fill="white"/>
<path d="M153.408 36.0962H144.384V45.1202H153.408V36.0962Z" fill="white"/>
<path d="M153.408 45.1201H144.384V54.1441H153.408V45.1201Z" fill="white"/>
<path d="M153.408 54.144H144.384V63.168H153.408V54.144Z" fill="white"/>
<path d="M153.408 63.168H144.384V72.192H153.408V63.168Z" fill="white"/>
<path d="M153.408 108.288H144.384V117.312H153.408V108.288Z" fill="white"/>
<path d="M153.408 126.336H144.384V135.36H153.408V126.336Z" fill="white"/>
<path d="M153.408 144.384H144.384V153.408H153.408V144.384Z" fill="white"/>
<path d="M153.408 153.408H144.384V162.432H153.408V153.408Z" fill="white"/>
<path d="M153.408 162.432H144.384V171.456H153.408V162.432Z" fill="white"/>
<path d="M153.408 171.456H144.384V180.48H153.408V171.456Z" fill="white"/>
<path d="M153.408 180.48H144.384V189.504H153.408V180.48Z" fill="white"/>
<path d="M153.408 216.576H144.384V225.6H153.408V216.576Z" fill="white"/>
<path d="M162.432 72.1919H153.408V81.2159H162.432V72.1919Z" fill="white"/>
<path d="M162.432 81.2158H153.408V90.2398H162.432V81.2158Z" fill="white"/>
<path d="M162.432 99.2642H153.408V108.288H162.432V99.2642Z" fill="white"/>
<path d="M162.432 117.312H153.408V126.336H162.432V117.312Z" fill="white"/>
<path d="M162.432 144.384H153.408V153.408H162.432V144.384Z" fill="white"/>
<path d="M162.432 180.48H153.408V189.504H162.432V180.48Z" fill="white"/>
<path d="M162.432 198.528H153.408V207.552H162.432V198.528Z" fill="white"/>
<path d="M171.456 72.1919H162.432V81.2159H171.456V72.1919Z" fill="white"/>
<path d="M171.456 81.2158H162.432V90.2398H171.456V81.2158Z" fill="white"/>
<path d="M171.456 99.2642H162.432V108.288H171.456V99.2642Z" fill="white"/>
<path d="M171.456 108.288H162.432V117.312H171.456V108.288Z" fill="white"/>
<path d="M171.456 117.312H162.432V126.336H171.456V117.312Z" fill="white"/>
<path d="M171.456 135.36H162.432V144.384H171.456V135.36Z" fill="white"/>
<path d="M171.456 144.384H162.432V153.408H171.456V144.384Z" fill="white"/>
<path d="M171.456 162.432H162.432V171.456H171.456V162.432Z" fill="white"/>
<path d="M171.456 180.48H162.432V189.504H171.456V180.48Z" fill="white"/>
<path d="M171.456 198.528H162.432V207.552H171.456V198.528Z" fill="white"/>
<path d="M171.456 216.576H162.432V225.6H171.456V216.576Z" fill="white"/>
<path d="M180.48 81.2158H171.456V90.2398H180.48V81.2158Z" fill="white"/>
<path d="M180.48 90.2402H171.456V99.2642H180.48V90.2402Z" fill="white"/>
<path d="M180.48 99.2642H171.456V108.288H180.48V99.2642Z" fill="white"/>
<path d="M180.48 126.336H171.456V135.36H180.48V126.336Z" fill="white"/>
<path d="M180.48 144.384H171.456V153.408H180.48V144.384Z" fill="white"/>
<path d="M180.48 180.48H171.456V189.504H180.48V180.48Z" fill="white"/>
<path d="M180.48 189.504H171.456V198.528H180.48V189.504Z" fill="white"/>
<path d="M180.48 207.552H171.456V216.576H180.48V207.552Z" fill="white"/>
<path d="M180.48 216.576H171.456V225.6H180.48V216.576Z" fill="white"/>
<path d="M189.504 72.1919H180.48V81.2159H189.504V72.1919Z" fill="white"/>
<path d="M189.504 99.2642H180.48V108.288H189.504V99.2642Z" fill="white"/>
<path d="M189.504 126.336H180.48V135.36H189.504V126.336Z" fill="white"/>
<path d="M189.504 135.36H180.48V144.384H189.504V135.36Z" fill="white"/>
<path d="M189.504 144.384H180.48V153.408H189.504V144.384Z" fill="white"/>
<path d="M189.504 153.408H180.48V162.432H189.504V153.408Z" fill="white"/>
<path d="M189.504 162.432H180.48V171.456H189.504V162.432Z" fill="white"/>
<path d="M189.504 171.456H180.48V180.48H189.504V171.456Z" fill="white"/>
<path d="M189.504 180.48H180.48V189.504H189.504V180.48Z" fill="white"/>
<path d="M189.504 198.528H180.48V207.552H189.504V198.528Z" fill="white"/>
<path d="M189.504 207.552H180.48V216.576H189.504V207.552Z" fill="white"/>
<path d="M198.528 72.1919H189.504V81.2159H198.528V72.1919Z" fill="white"/>
<path d="M198.528 117.312H189.504V126.336H198.528V117.312Z" fill="white"/>
<path d="M198.528 126.336H189.504V135.36H198.528V126.336Z" fill="white"/>
<path d="M198.528 135.36H189.504V144.384H198.528V135.36Z" fill="white"/>
<path d="M198.528 153.408H189.504V162.432H198.528V153.408Z" fill="white"/>
<path d="M198.528 162.432H189.504V171.456H198.528V162.432Z" fill="white"/>
<path d="M198.528 180.48H189.504V189.504H198.528V180.48Z" fill="white"/>
<path d="M198.528 198.528H189.504V207.552H198.528V198.528Z" fill="white"/>
<path d="M198.528 216.576H189.504V225.6H198.528V216.576Z" fill="white"/>
<path d="M207.552 108.288H198.528V117.312H207.552V108.288Z" fill="white"/>
<path d="M207.552 126.336H198.528V135.36H207.552V126.336Z" fill="white"/>
<path d="M207.552 144.384H198.528V153.408H207.552V144.384Z" fill="white"/>
<path d="M207.552 171.456H198.528V180.48H207.552V171.456Z" fill="white"/>
<path d="M207.552 180.48H198.528V189.504H207.552V180.48Z" fill="white"/>
<path d="M207.552 189.504H198.528V198.528H207.552V189.504Z" fill="white"/>
<path d="M207.552 198.528H198.528V207.552H207.552V198.528Z" fill="white"/>
<path d="M207.552 207.552H198.528V216.576H207.552V207.552Z" fill="white"/>
<path d="M207.552 216.576H198.528V225.6H207.552V216.576Z" fill="white"/>
<path d="M216.576 81.2158H207.552V90.2398H216.576V81.2158Z" fill="white"/>
<path d="M216.576 90.2402H207.552V99.2642H216.576V90.2402Z" fill="white"/>
<path d="M216.576 99.2642H207.552V108.288H216.576V99.2642Z" fill="white"/>
<path d="M216.576 117.312H207.552V126.336H216.576V117.312Z" fill="white"/>
<path d="M216.576 126.336H207.552V135.36H216.576V126.336Z" fill="white"/>
<path d="M216.576 153.408H207.552V162.432H216.576V153.408Z" fill="white"/>
<path d="M216.576 171.456H207.552V180.48H216.576V171.456Z" fill="white"/>
<path d="M216.576 180.48H207.552V189.504H216.576V180.48Z" fill="white"/>
<path d="M216.576 189.504H207.552V198.528H216.576V189.504Z" fill="white"/>
<path d="M216.576 198.528H207.552V207.552H216.576V198.528Z" fill="white"/>
<path d="M216.576 207.552H207.552V216.576H216.576V207.552Z" fill="white"/>
<path d="M216.576 216.576H207.552V225.6H216.576V216.576Z" fill="white"/>
<path d="M225.6 99.2642H216.576V108.288H225.6V99.2642Z" fill="white"/>
<path d="M225.6 117.312H216.576V126.336H225.6V117.312Z" fill="white"/>
<path d="M225.6 135.36H216.576V144.384H225.6V135.36Z" fill="white"/>
<path d="M225.6 144.384H216.576V153.408H225.6V144.384Z" fill="white"/>
<path d="M225.6 153.408H216.576V162.432H225.6V153.408Z" fill="white"/>
<path d="M225.6 171.456H216.576V180.48H225.6V171.456Z" fill="white"/>
<path d="M225.6 189.504H216.576V198.528H225.6V189.504Z" fill="white"/>
<path d="M225.6 198.528H216.576V207.552H225.6V198.528Z" fill="white"/>
<path d="M225.6 216.576H216.576V225.6H225.6V216.576Z" fill="white"/>
</mask>
<g mask="url(#mask0_791_1341)">
<path d="M226.603 0H0V226.603H226.603V0Z" fill="black"/>
</g>
<mask id="mask1_791_1341" style="mask-type:luminance" maskUnits="userSpaceOnUse" x="0" y="0" width="64" height="64">
<path fill-rule="evenodd" clip-rule="evenodd" d="M0 0V63.168H63.168V0H0ZM9.024 9.024H54.144V54.144H9.024V9.024Z" fill="white"/>
</mask>
<g mask="url(#mask1_791_1341)">
<path d="M63.168 0H0V63.168H63.168V0Z" fill="black"/>
</g>
<mask id="mask2_791_1341" style="mask-type:luminance" maskUnits="userSpaceOnUse" x="18" y="18" width="28" height="28">
<path d="M45.1199 18.0479H18.0479V45.1199H45.1199V18.0479Z" fill="white"/>
</mask>
<g mask="url(#mask2_791_1341)">
<path d="M45.1199 18.0479H18.0479V45.1199H45.1199V18.0479Z" fill="black"/>
</g>
<mask id="mask3_791_1341" style="mask-type:luminance" maskUnits="userSpaceOnUse" x="162" y="0" width="64" height="64">
<path fill-rule="evenodd" clip-rule="evenodd" d="M225.6 0L162.432 0V63.168L225.6 63.168V0ZM216.576 9.024V54.144H171.456V9.024L216.576 9.024Z" fill="white"/>
</mask>
<g mask="url(#mask3_791_1341)">
<path d="M225.6 0H162.432V63.168H225.6V0Z" fill="black"/>
</g>
<mask id="mask4_791_1341" style="mask-type:luminance" maskUnits="userSpaceOnUse" x="180" y="18" width="28" height="28">
<path d="M207.553 45.1199V18.0479H180.481V45.1199H207.553Z" fill="white"/>
</mask>
<g mask="url(#mask4_791_1341)">
<path d="M207.552 18.0479H180.48V45.1199H207.552V18.0479Z" fill="black"/>
</g>
<mask id="mask5_791_1341" style="mask-type:luminance" maskUnits="userSpaceOnUse" x="0" y="162" width="64" height="64">
<path fill-rule="evenodd" clip-rule="evenodd" d="M0 225.6H63.168L63.168 162.432H0L0 225.6ZM9.024 216.576L9.024 171.456H54.144V216.576H9.024Z" fill="white"/>
</mask>
<g mask="url(#mask5_791_1341)">
<path d="M63.168 162.432H0V225.6H63.168V162.432Z" fill="black"/>
</g>
<mask id="mask6_791_1341" style="mask-type:luminance" maskUnits="userSpaceOnUse" x="18" y="180" width="28" height="28">
<path d="M18.0479 180.48V207.552H45.1199V180.48H18.0479Z" fill="white"/>
</mask>
<g mask="url(#mask6_791_1341)">
<path d="M45.1199 180.48H18.0479V207.552H45.1199V180.48Z" fill="black"/>
</g>
</g>
<defs>
<clipPath id="clip0_791_1341">
<rect width="225.6" height="225.6" fill="white"/>
</clipPath>
</defs>
</svg>
